<svg width="28" height="26" viewBox="0 0 28 26" fill="none" xmlns="http://www.w3.org/2000/svg">
<path d="M0 3.35484C0 2.46508 0.357575 1.61176 0.994062 0.982609C1.63055 0.353455 2.49381 0 3.39394 0H23.7576C24.6577 0 25.521 0.353455 26.1575 0.982609C26.7939 1.61176 27.1515 2.46508 27.1515 3.35484V8.632C26.64 8.17935 26.0693 7.79682 25.4545 7.49471V3.35484C25.4545 2.90996 25.2758 2.4833 24.9575 2.16872C24.6393 1.85415 24.2076 1.67742 23.7576 1.67742H3.39394C2.94388 1.67742 2.51224 1.85415 2.194 2.16872C1.87576 2.4833 1.69697 2.90996 1.69697 3.35484V16.7742C1.69697 17.2191 1.87576 17.6457 2.194 17.9603C2.51224 18.2749 2.94388 18.4516 3.39394 18.4516H15.7105C15.8395 18.6412 15.977 18.8257 16.1212 19.0035V20.129H3.39394C2.49381 20.129 1.63055 19.7756 0.994062 19.1464C0.357575 18.5173 0 17.664 0 16.7742V3.35484ZM28 14.2581C28 15.8583 27.3535 17.3076 26.303 18.3677V25.1613C26.303 25.317 26.2592 25.4697 26.1763 25.6022C26.0935 25.7347 25.9749 25.8418 25.834 25.9115C25.6931 25.9811 25.5353 26.0106 25.3783 25.9966C25.2214 25.9826 25.0715 25.9257 24.9455 25.8323L22.5697 24.071C22.4228 23.9621 22.2442 23.9032 22.0606 23.9032C21.877 23.9032 21.6984 23.9621 21.5515 24.071L19.1758 25.8323C19.0497 25.9257 18.8998 25.9826 18.7429 25.9966C18.5859 26.0106 18.4282 25.9811 18.2872 25.9115C18.1463 25.8418 18.0277 25.7347 17.9449 25.6022C17.8621 25.4697 17.8182 25.317 17.8182 25.1613V18.3677C17.1364 17.6799 16.6363 16.8369 16.3618 15.913C16.0874 14.9891 16.047 14.0127 16.2443 13.0697C16.4416 12.1268 16.8706 11.2463 17.4933 10.5058C18.116 9.76533 18.9135 9.18764 19.8153 8.82362C20.7172 8.45961 21.6958 8.32045 22.6648 8.41841C23.6339 8.51638 24.5638 8.84845 25.3724 9.38537C26.181 9.92229 26.8437 10.6476 27.3019 11.4973C27.7601 12.347 27.9999 13.2951 28 14.2581ZM22.0606 20.129C21.1493 20.129 20.2873 19.9277 19.5152 19.5637V23.0645L21.6245 21.8132C21.7563 21.7351 21.907 21.6939 22.0606 21.6939C22.2142 21.6939 22.365 21.7351 22.4967 21.8132L24.6061 23.0645V19.5637C23.8107 19.9371 22.9411 20.1302 22.0606 20.129ZM22.0606 18.4516C23.1858 18.4516 24.2648 18.0098 25.0605 17.2234C25.8561 16.4369 26.303 15.3703 26.303 14.2581C26.303 13.1459 25.8561 12.0792 25.0605 11.2928C24.2648 10.5063 23.1858 10.0645 22.0606 10.0645C20.9354 10.0645 19.8564 10.5063 19.0608 11.2928C18.2652 12.0792 17.8182 13.1459 17.8182 14.2581C17.8182 15.3703 18.2652 16.4369 19.0608 17.2234C19.8564 18.0098 20.9354 18.4516 22.0606 18.4516ZM5.09091 5.87097C5.09091 5.64853 5.1803 5.4352 5.33943 5.27791C5.49855 5.12062 5.71436 5.03226 5.93939 5.03226H21.2121C21.4372 5.03226 21.653 5.12062 21.8121 5.27791C21.9712 5.4352 22.0606 5.64853 22.0606 5.87097C22.0606 6.09341 21.9712 6.30674 21.8121 6.46402C21.653 6.62131 21.4372 6.70968 21.2121 6.70968H5.93939C5.71436 6.70968 5.49855 6.62131 5.33943 6.46402C5.1803 6.30674 5.09091 6.09341 5.09091 5.87097ZM5.93939 13.4194C5.71436 13.4194 5.49855 13.5077 5.33943 13.665C5.1803 13.8223 5.09091 14.0356 5.09091 14.2581C5.09091 14.4805 5.1803 14.6938 5.33943 14.8511C5.49855 15.0084 5.71436 15.0968 5.93939 15.0968H12.7273C12.9523 15.0968 13.1681 15.0084 13.3272 14.8511C13.4864 14.6938 13.5758 14.4805 13.5758 14.2581C13.5758 14.0356 13.4864 13.8223 13.3272 13.665C13.1681 13.5077 12.9523 13.4194 12.7273 13.4194H5.93939Z" fill="#D54D3D"/>
</svg>
