<svg width="28" height="28" viewBox="0 0 28 28" fill="none" xmlns="http://www.w3.org/2000/svg">
<path d="M17.675 19.635C17.9317 19.8917 18.2467 20.02 18.62 20.02C18.9933 20.02 19.32 19.88 19.6 19.6C19.8567 19.3433 19.985 19.0167 19.985 18.62C19.985 18.2233 19.8567 17.8967 19.6 17.64L15.4 13.44V8.365C15.4 7.96833 15.2661 7.64167 14.9982 7.385C14.7294 7.12833 14.3967 7 14 7C13.6033 7 13.2711 7.13393 13.0032 7.4018C12.7344 7.6706 12.6 8.00333 12.6 8.4V13.965C12.6 14.1517 12.635 14.3323 12.705 14.5068C12.775 14.6823 12.88 14.84 13.02 14.98L17.675 19.635ZM14 28C12.0633 28 10.2433 27.6323 8.54 26.8968C6.83667 26.1623 5.355 25.165 4.095 23.905C2.835 22.645 1.83773 21.1633 1.1032 19.46C0.367733 17.7567 0 15.9367 0 14C0 12.0633 0.367733 10.2433 1.1032 8.54C1.83773 6.83667 2.835 5.355 4.095 4.095C5.355 2.835 6.83667 1.83727 8.54 1.1018C10.2433 0.367267 12.0633 0 14 0C15.9367 0 17.7567 0.367267 19.46 1.1018C21.1633 1.83727 22.645 2.835 23.905 4.095C25.165 5.355 26.1623 6.83667 26.8968 8.54C27.6323 10.2433 28 12.0633 28 14C28 15.9367 27.6323 17.7567 26.8968 19.46C26.1623 21.1633 25.165 22.645 23.905 23.905C22.645 25.165 21.1633 26.1623 19.46 26.8968C17.7567 27.6323 15.9367 28 14 28ZM14 25.2C17.1033 25.2 19.7461 24.1094 21.9282 21.9282C24.1094 19.7461 25.2 17.1033 25.2 14C25.2 10.8967 24.1094 8.25393 21.9282 6.0718C19.7461 3.8906 17.1033 2.8 14 2.8C10.8967 2.8 8.2544 3.8906 6.0732 6.0718C3.89107 8.25393 2.8 10.8967 2.8 14C2.8 17.1033 3.89107 19.7461 6.0732 21.9282C8.2544 24.1094 10.8967 25.2 14 25.2Z" fill="#D54D3D"/>
</svg>

