<svg width="28" height="27" viewBox="0 0 28 27" fill="none" xmlns="http://www.w3.org/2000/svg">
<path d="M28 9V3H22V5H12V2C11.9995 1.46973 11.7886 0.961329 11.4136 0.586371C11.0387 0.211413 10.5303 0.000529477 10 0H2C1.46973 0.000529477 0.961329 0.211413 0.586371 0.586371C0.211413 0.961329 0.000529477 1.46973 0 2V10C0.000529477 10.5303 0.211413 11.0387 0.586371 11.4136C0.961329 11.7886 1.46973 11.9995 2 12H10C10.5303 11.9995 11.0387 11.7886 11.4136 11.4136C11.7886 11.0387 11.9995 10.5303 12 10V7C12.7954 7.00079 13.558 7.31712 14.1204 7.87956C14.6829 8.44199 14.9992 9.20459 15 10V19H9V17H3V23H9V21H15V23C15.0005 23.5303 15.2114 24.0387 15.5864 24.4136C15.9613 24.7886 16.4697 24.9995 17 25H22V27H28V21H22V23H17V16H22V18H28V12H22V14H17V10C16.9963 8.9147 16.6362 7.86066 15.975 7H22V9H28ZM2 10V2H10V10H2ZM7 21H5V19H7V21ZM24 23H26V25H24V23ZM24 14H26V16H24V14ZM24 5H26V7H24V5Z" fill="#D54D3D"/>
</svg>
